<?xml version="1.0" standalone="no"?>
<!DOCTYPE svg PUBLIC "-//W3C//DTD SVG 20010904//EN"
 "http://www.w3.org/TR/2001/REC-SVG-20010904/DTD/svg10.dtd">
<svg version="1.0" xmlns="http://www.w3.org/2000/svg"
 width="1280.000000pt" height="863.000000pt" viewBox="0 0 1280.000000 863.000000"
 preserveAspectRatio="xMidYMid meet">
<metadata>
Created by potrace 1.15, written by Peter Selinger 2001-2017
</metadata>
<g transform="translate(0.000000,863.000000) scale(0.100000,-0.100000)"
fill="#d69e2e" stroke="none">
<path d="M6000 8583 c0 -46 5 -55 150 -243 l150 -195 0 -72 c0 -40 -2 -73 -5
-73 -3 0 -114 54 -246 121 -209 104 -246 120 -282 117 l-42 -3 0 -315 0 -315
43 -3 c36 -3 79 13 282 102 131 58 241 106 244 106 3 0 6 -81 6 -179 l0 -179
-65 -11 c-205 -36 -402 -169 -477 -323 -144 -295 61 -613 454 -703 105 -24
289 -22 393 4 318 82 520 323 477 572 -36 209 -217 376 -477 439 l-70 17 -3
171 -2 172 22 -9 c13 -5 120 -52 238 -105 174 -78 223 -96 262 -96 l48 0 0
300 0 300 -45 0 c-38 0 -85 -20 -285 -120 l-240 -120 0 102 0 103 150 195
c145 188 150 197 150 243 l0 47 -415 0 -415 0 0 -47z m300 -1423 l0 -160 -27
6 c-133 29 -264 75 -309 109 -18 13 -16 16 33 62 57 55 150 105 233 127 30 8
58 15 63 15 4 1 7 -71 7 -159z m365 106 c39 -19 87 -47 108 -64 49 -39 100
-103 90 -113 -25 -23 -261 -89 -319 -89 -11 0 -14 28 -14 156 l0 156 33 -7
c17 -4 64 -21 102 -39z m-140 -536 c99 -27 229 -86 220 -100 -12 -19 -124 -70
-187 -85 -81 -19 -235 -19 -317 0 -78 19 -180 71 -241 124 l-45 39 29 11 c116
45 394 51 541 11z"/>
<path d="M5014 6806 c-142 -36 -238 -149 -218 -258 14 -76 61 -130 154 -179
66 -34 203 -39 284 -10 296 104 217 433 -109 456 -33 3 -83 -1 -111 -9z"/>
<path d="M7615 6810 c-66 -14 -114 -39 -160 -81 -134 -123 -80 -303 111 -370
82 -29 206 -24 284 13 146 68 194 200 115 319 -28 44 -99 93 -155 109 -52 15
-149 20 -195 10z"/>
<path d="M4180 6641 c-85 -28 -148 -79 -174 -143 -21 -50 -20 -90 5 -142 25
-54 49 -77 119 -112 48 -25 67 -28 145 -29 77 0 98 4 145 26 113 55 163 138
139 233 -14 58 -55 105 -120 141 -47 25 -66 30 -144 32 -49 1 -101 -1 -115 -6z"/>
<path d="M8409 6637 c-95 -35 -162 -103 -174 -175 -33 -199 277 -327 474 -196
142 93 125 270 -33 351 -42 22 -67 27 -141 30 -59 2 -103 -1 -126 -10z"/>
<path d="M3455 6371 c-54 -13 -104 -42 -139 -81 -142 -157 72 -359 306 -291
57 16 125 72 144 118 64 151 -119 300 -311 254z"/>
<path d="M9174 6362 c-217 -77 -201 -310 25 -368 240 -61 434 167 267 314 -50
44 -99 62 -176 68 -47 3 -79 0 -116 -14z"/>
<path d="M5400 6289 c-615 -83 -1019 -170 -1565 -335 -803 -244 -1654 -619
-2262 -999 -154 -96 -317 -214 -316 -230 0 -10 192 -154 206 -155 4 0 49 29
99 65 197 142 484 308 826 479 770 386 1610 675 2437 840 175 35 496 88 501
83 2 -1 33 -56 70 -122 115 -205 195 -402 269 -660 l43 -150 151 -3 150 -3
-20 73 c-106 388 -203 633 -376 951 -109 198 -89 183 -213 166z"/>
<path d="M7198 6143 c-179 -329 -258 -520 -354 -853 -24 -85 -47 -163 -50
-172 -5 -17 6 -18 145 -18 l150 0 16 58 c43 157 142 441 193 552 44 94 159
310 176 327 2 2 167 -23 310 -47 625 -108 1320 -311 1965 -575 569 -232 1195
-562 1512 -796 37 -27 69 -49 73 -49 3 0 54 35 113 77 l106 77 -39 33 c-56 48
-298 208 -439 290 -864 505 -2018 939 -3020 1137 -230 45 -693 116 -760 116
-6 0 -50 -71 -97 -157z"/>
<path d="M6285 6265 c-88 -33 -145 -105 -145 -185 0 -182 292 -268 451 -132
77 66 90 148 37 227 -48 71 -109 99 -218 102 -55 2 -99 -3 -125 -12z"/>
<path d="M2750 6099 c-133 -60 -166 -183 -73 -273 50 -48 117 -69 201 -64 120
7 204 68 219 161 11 71 -54 154 -146 185 -54 19 -150 14 -201 -9z"/>
<path d="M9837 6105 c-78 -30 -137 -101 -137 -165 0 -51 38 -110 92 -143 57
-36 160 -47 234 -27 62 18 133 83 144 133 16 76 -23 147 -105 190 -52 26 -174
33 -228 12z"/>
<path d="M2062 5764 c-79 -39 -113 -100 -98 -177 7 -37 53 -90 100 -114 42
-22 146 -28 200 -13 100 28 162 118 137 199 -14 47 -78 106 -130 121 -68 19
-153 12 -209 -16z"/>
<path d="M10516 5775 c-102 -36 -154 -144 -107 -221 40 -65 117 -104 205 -104
71 0 121 16 162 52 102 90 79 209 -51 269 -48 22 -152 24 -209 4z"/>
<path d="M6340 5761 c-111 -24 -183 -117 -159 -206 31 -112 213 -170 335 -107
178 92 119 295 -91 316 -27 2 -66 1 -85 -3z"/>
<path d="M1519 5436 c-130 -35 -178 -150 -98 -233 45 -46 105 -66 176 -61 74
5 128 31 159 77 82 121 -71 263 -237 217z"/>
<path d="M11170 5440 c-87 -17 -141 -67 -147 -137 -6 -59 22 -106 81 -137 49
-25 141 -33 191 -16 78 26 136 106 120 167 -21 86 -138 145 -245 123z"/>
<path d="M3095 5353 c-209 -286 -240 -678 -89 -1147 14 -43 23 -80 21 -82 -2
-2 -57 9 -123 25 -171 42 -283 55 -432 48 -157 -7 -268 -33 -387 -92 -158 -77
-261 -178 -329 -320 -39 -80 -66 -190 -66 -265 0 -137 65 -313 158 -424 82
-99 215 -197 345 -254 l49 -22 -9 53 c-4 28 -8 104 -8 167 0 96 4 126 24 180
76 207 244 303 531 304 101 0 139 -4 196 -22 174 -53 269 -174 281 -357 20
-293 -240 -613 -597 -737 -131 -45 -230 -61 -421 -66 -566 -14 -965 147 -1222
493 -94 128 -231 433 -214 478 9 24 49 21 159 -12 192 -57 334 -126 537 -258
46 -30 86 -51 89 -48 9 9 -25 215 -64 383 -40 176 -134 467 -188 585 -29 62
-73 138 -102 176 -5 6 -79 -43 -201 -136 -134 -101 -234 -156 -358 -196 -167
-54 -166 -68 -7 169 134 200 237 342 338 467 l46 58 -78 -6 c-181 -15 -394
-47 -673 -101 -163 -31 -297 -58 -298 -59 -2 -1 23 -80 55 -176 61 -182 127
-345 167 -415 l24 -41 -47 -92 c-46 -91 -47 -95 -47 -184 0 -77 4 -99 23 -136
33 -62 102 -132 207 -211 81 -61 95 -77 137 -151 141 -253 271 -659 298 -931
16 -160 2 -248 -57 -368 -38 -77 -48 -107 -51 -162 -9 -145 43 -218 238 -332
140 -82 313 -209 450 -328 112 -98 128 -108 168 -108 19 0 106 29 195 64 279
110 561 190 957 270 2003 407 5357 407 7360 0 396 -80 678 -160 957 -270 89
-35 176 -64 195 -64 40 0 56 10 168 108 137 119 310 246 450 328 195 114 247
187 238 332 -3 55 -13 85 -51 162 -60 120 -74 212 -57 370 29 274 159 679 298
929 42 75 56 90 139 152 100 76 173 151 206 213 18 33 22 58 22 133 0 89 -1
93 -47 184 l-48 93 24 40 c41 70 107 233 168 415 32 96 57 175 55 176 -1 1
-135 28 -298 59 -279 54 -492 86 -673 101 l-78 6 46 -58 c101 -125 204 -267
338 -467 159 -237 160 -223 -7 -169 -142 46 -233 97 -395 223 -86 67 -159 115
-164 109 -29 -38 -73 -114 -102 -176 -54 -118 -148 -409 -188 -585 -39 -168
-73 -374 -64 -383 3 -3 43 18 89 48 203 132 345 201 537 258 158 48 178 39
147 -60 -62 -201 -193 -418 -329 -549 -262 -251 -609 -362 -1095 -350 -191 5
-290 21 -421 66 -357 124 -617 445 -597 737 7 98 26 155 75 220 48 64 116 110
206 137 57 18 95 22 196 22 287 -1 455 -97 531 -304 20 -54 24 -84 24 -180 0
-63 -4 -139 -8 -167 l-9 -53 49 22 c130 57 263 155 345 254 93 111 158 287
158 424 0 75 -27 185 -66 265 -68 142 -171 243 -329 320 -119 59 -230 85 -387
92 -149 7 -261 -6 -432 -48 -66 -16 -121 -27 -123 -25 -2 2 7 39 21 82 132
411 126 759 -19 1031 -41 77 -101 163 -114 163 -15 0 -276 -206 -352 -277
-234 -221 -327 -485 -290 -822 7 -62 11 -115 8 -117 -3 -3 -40 15 -84 39 -185
105 -298 155 -413 182 -86 20 -139 19 -251 -4 -216 -45 -340 -101 -434 -196
-72 -72 -109 -137 -135 -241 -54 -209 9 -393 200 -584 50 -50 179 -150 193
-150 3 0 8 19 12 43 44 281 149 397 392 430 181 24 363 -29 456 -133 70 -78
91 -141 91 -280 1 -111 0 -118 -32 -182 -103 -210 -419 -392 -787 -454 -149
-25 -406 -23 -559 5 -560 101 -983 469 -1024 889 l-8 83 30 -7 c107 -22 307
-116 480 -225 83 -52 106 -62 157 -66 l59 -6 0 553 0 552 -63 -4 c-78 -5 -128
-34 -320 -186 -143 -114 -209 -155 -266 -167 -31 -7 -33 -5 -26 11 4 11 16 45
27 76 11 32 62 140 114 240 164 319 233 462 236 488 l3 25 -675 0 -675 0 3
-25 c3 -26 72 -169 236 -488 52 -100 103 -208 114 -240 11 -31 23 -65 27 -76
7 -16 5 -18 -26 -11 -57 12 -123 53 -266 167 -192 152 -242 181 -320 186 l-63
4 0 -552 0 -553 59 6 c51 4 74 14 157 66 173 109 373 203 480 225 l30 7 -8
-83 c-41 -420 -464 -788 -1024 -889 -156 -29 -401 -31 -557 -5 -118 19 -288
70 -393 116 -172 78 -337 218 -397 339 -31 63 -32 71 -31 181 0 139 21 202 91
280 93 104 275 157 456 133 242 -33 349 -150 393 -430 4 -24 9 -43 12 -43 14
0 143 101 192 150 191 191 254 375 200 584 -26 104 -63 169 -135 241 -94 95
-218 151 -434 196 -112 23 -165 24 -251 4 -115 -27 -228 -77 -413 -182 -44
-24 -81 -42 -84 -39 -3 2 1 55 8 117 41 373 -71 645 -370 893 -107 89 -262
206 -272 206 -5 0 -24 -21 -44 -47z m3388 -1390 c16 -8 35 -30 44 -51 14 -34
14 -40 -3 -72 -24 -44 -95 -76 -147 -66 -82 15 -131 78 -106 137 28 69 129 94
212 52z m-6051 -411 c112 -74 161 -309 71 -343 -51 -19 -126 39 -164 129 -64
149 -7 280 93 214z m12018 8 c40 -21 50 -106 23 -186 -38 -113 -110 -183 -172
-167 -54 14 -68 131 -26 221 53 113 118 163 175 132z m-6025 -1068 c11 -15 78
-99 150 -187 72 -88 134 -166 138 -172 5 -8 -50 -84 -149 -205 -86 -106 -160
-194 -163 -196 -9 -3 -316 376 -316 392 0 12 305 395 315 395 3 0 14 -12 25
-27z m-1286 -127 c40 -20 81 -72 81 -101 0 -86 -102 -148 -204 -125 -55 12
-101 47 -117 88 -18 49 21 118 81 142 38 15 127 13 159 -4z m2708 -11 c37 -27
63 -82 56 -116 -13 -64 -117 -119 -195 -103 -73 16 -128 71 -128 128 0 29 32
72 74 99 42 26 153 22 193 -8z m-3928 -4 c575 -59 727 -464 258 -689 -207 -99
-440 -132 -679 -96 -293 44 -482 185 -480 360 2 202 273 382 638 424 101 12
150 12 263 1z m5345 -21 c305 -62 517 -227 518 -404 2 -175 -187 -316 -480
-360 -238 -36 -473 -3 -679 96 -231 111 -329 279 -252 433 83 167 364 274 684
260 61 -3 155 -14 209 -25z m-6987 -348 c70 -32 94 -111 51 -166 -25 -32 -91
-64 -132 -65 -120 -1 -203 104 -149 187 38 58 151 80 230 44z m8413 3 c81 -33
105 -115 50 -177 -49 -56 -133 -71 -206 -38 -76 35 -102 96 -68 162 31 60 141
86 224 53z m-5442 -153 c18 -12 39 -36 48 -53 53 -103 -103 -206 -229 -150
-110 49 -111 168 -2 218 46 22 143 14 183 -15z m2485 15 c74 -31 105 -104 68
-163 -29 -46 -75 -67 -147 -68 -50 0 -68 5 -102 27 -53 36 -72 89 -48 136 15
29 54 63 86 75 29 11 111 7 143 -7z m-6476 -222 c92 -58 169 -107 170 -108 3
-2 -94 -327 -99 -332 -3 -2 -312 187 -346 211 -5 4 97 335 104 335 2 0 79 -48
171 -106z m10477 59 c32 -101 86 -286 84 -288 -34 -24 -343 -213 -346 -211 -2
2 -25 78 -52 167 -37 122 -46 165 -37 171 7 4 82 52 167 107 85 55 158 100
162 100 3 1 13 -20 22 -46z m-9315 -223 c76 -53 62 -153 -28 -200 -33 -17
-132 -15 -169 4 -117 60 -87 202 48 226 47 8 115 -5 149 -30z m8168 12 c87
-47 82 -161 -9 -208 -37 -19 -136 -21 -169 -4 -90 47 -104 147 -28 201 51 36
149 41 206 11z"/>
<path d="M6332 5297 c-18 -5 -46 -25 -62 -44 -99 -112 68 -244 217 -172 102
49 96 161 -11 210 -45 20 -93 23 -144 6z"/>
<path d="M1014 5061 c-84 -38 -108 -111 -57 -172 50 -60 140 -76 219 -40 53
24 74 55 74 107 0 95 -130 153 -236 105z"/>
<path d="M11643 5069 c-40 -12 -93 -63 -94 -92 -4 -67 16 -101 74 -128 80 -36
169 -20 220 40 85 101 -51 223 -200 180z"/>
<path d="M5720 1184 c-807 -27 -1519 -81 -2170 -164 -905 -116 -1582 -276
-1723 -408 -67 -64 -11 -114 208 -186 494 -161 1604 -312 2810 -380 594 -34
839 -41 1555 -41 842 0 1341 18 2075 76 1384 107 2525 325 2525 482 0 137
-725 326 -1750 457 -528 67 -1018 109 -1695 146 -268 14 -1567 27 -1835 18z"/>
</g>
</svg>
